Coordinates
version=1
nRows=12
nColumns=24
inDegrees=yes

Units are S.I. units (second, meters, Newtons, ...)
Angles are in degrees.

endheader
time	pelvis_tilt	pelvis_list	pelvis_rotation	pelvis_tx	pelvis_ty	pelvis_tz	hip_flexion_r	hip_adduction_r	hip_rotation_r	knee_angle_r	ankle_angle_r	subtalar_angle_r	mtp_angle_r	hip_flexion_l	hip_adduction_l	hip_rotation_l	knee_angle_l	ankle_angle_l	subtalar_angle_l	mtp_angle_l	lumbar_extension	lumbar_bending	lumbar_rotation
      4.61500000	     -8.86213873	      4.79387353	      3.22642348	     -1.36156151	     -0.00391198	     -0.32855784	     28.00007163	    -10.91044199	    -10.25502286	    -63.71273015	    -13.57893806	      1.99485669	     35.14952494	     12.20394651	     10.46351314	     15.00903993	    -13.56341926	      1.10119199	     -8.61778731	      1.64678961	      6.20895581	     -6.75409006	      1.87290747
      4.62000000	     -8.76603445	      4.59269536	      3.43688272	     -1.35666358	     -0.00345314	     -0.32890071	     28.53140057	    -10.75248957	    -10.43697195	    -63.10847272	    -12.98203724	      1.98644478	     35.10437255	     11.64382660	     10.24355402	     15.20348148	    -13.33449150	      1.31469275	     -8.41269359	      1.86487264	      5.99995418	     -6.57249321	      1.47397343
      4.62500000	     -8.62041905	      4.42506087	      3.63273595	     -1.35175469	     -0.00300050	     -0.32916374	     28.99462300	    -10.61309391	    -10.60564990	    -62.45840946	    -12.35497839	      1.97061568	     34.77744740	     11.01853707	     10.03379059	     15.35153174	    -13.06632588	      1.47782858	     -8.16234646	      2.32937225	      5.74086499	     -6.42739311	      1.12257985
      4.63000000	     -8.54444287	      4.23239841	      3.83073903	     -1.34692296	     -0.00267534	     -0.32945764	     29.51843224	    -10.43811803	    -10.74296579	    -61.73091464	    -11.80421190	      1.95575617	     34.60662483	     10.50127602	      9.81310514	     15.49357818	    -12.85067401	      1.64691474	     -8.00538522	      2.65979987	      5.55068186	     -6.24959634	      0.72079112
      4.63500000	     -8.40758402	      4.06575487	      4.01373647	     -1.34208280	     -0.00236005	     -0.32967461	     29.95734283	    -10.27269239	    -10.86714526	    -60.95110715	    -11.24450581	      1.93181957	     34.25855343	      9.90881058	      9.60059728	     15.64144648	    -12.61319632	      1.81606050	     -7.83007773	      3.13050184	      5.29728449	     -6.10036262	      0.37293669
      4.64000000	     -8.29815266	      3.89432111	      4.19458142	     -1.33722991	     -0.00208273	     -0.32987154	     30.39842489	    -10.09094527	    -10.96873859	    -60.09402990	    -10.72871716	      1.94230943	     33.88530824	      9.35107407	      9.38333887	     15.77621731	    -12.37891830	      1.93343100	     -7.71115231	      3.55145130	      5.08271545	     -5.94602501	      0.02022961
      4.64500000	     -8.17280583	      3.74433271	      4.35931299	     -1.33238844	     -0.00188346	     -0.33001750	     30.81138335	     -9.91529479	    -11.03858210	    -59.19552500	    -10.22493145	      1.96889721	     33.43535396	      8.77636965	      9.18423256	     15.94302901	    -12.14902732	      2.07754630	     -7.64649221	      3.97493535	      4.85176594	     -5.81274094	     -0.30796576
      4.65000000	     -8.05088552	      3.60514512	      4.49900703	     -1.32751566	     -0.00170478	     -0.33009283	     31.20683393	     -9.72532632	    -11.06544242	    -58.23986922	     -9.70922630	      2.06226421	     32.79726293	      8.19778252	      8.98735265	     16.11033898	    -11.90109304	      2.15142012	     -7.64984072	      4.40146828	      4.63712956	     -5.69122615	     -0.58355639
      4.65500000	     -7.97224473	      3.44603041	      4.70265845	     -1.32273521	     -0.00163129	     -0.33025992	     31.60641585	     -9.55188556	    -11.13811621	    -57.19194761	     -9.29056533	      2.12764598	     32.51297962	      7.71676892	      8.80120453	     16.32238361	    -11.76025702	      2.33123139	     -7.65064992	      4.57443479	      4.44968327	     -5.55373492	     -0.95512401
      4.66000000	     -7.85938261	      3.28551573	      4.89296170	     -1.31788699	     -0.00154311	     -0.33039233	     31.93182280	     -9.36792038	    -11.20911050	    -56.07252531	     -8.87571344	      2.23730379	     32.14634757	      7.18293977	      8.60467485	     16.56124913	    -11.59800588	      2.50973587	     -7.70100453	      4.68162697	      4.24526070	     -5.40853014	     -1.26939904
      4.66500000	     -7.74372468	      3.12885300	      5.08293026	     -1.31306406	     -0.00148707	     -0.33048062	     32.22843005	     -9.17834594	    -11.25726795	    -54.89910753	     -8.45543224	      2.40813876	     31.69841785	      6.65580314	      8.41173720	     16.84965336	    -11.45843934	      2.68745651	     -7.79877085	      4.71765808	      4.03195540	     -5.27203575	     -1.59680120
      4.67000000	     -7.61073708	      2.98014977	      5.27868534	     -1.30833467	     -0.00143832	     -0.33052642	     32.48844266	     -8.98483281	    -11.26499271	    -53.68288509	     -8.02928231	      2.66924835	     31.09260493	      6.12526322	      8.22768604	     17.19700663	    -11.34714325	      2.86098275	     -7.95253575	      4.64298031	      3.77968392	     -5.14824268	     -1.96331020
